<?xml version="1.0" standalone="no"?>
<!DOCTYPE svg PUBLIC "-//W3C//DTD SVG 20010904//EN"
 "http://www.w3.org/TR/2001/REC-SVG-20010904/DTD/svg10.dtd">
<svg version="1.0" xmlns="http://www.w3.org/2000/svg"
 width="270.000000pt" height="270.000000pt" viewBox="0 0 270.000000 270.000000"
 preserveAspectRatio="xMidYMid meet">
<metadata>
Created by potrace 1.11, written by Peter Selinger 2001-2013
</metadata>
<g transform="translate(0.000000,270.000000) scale(0.100000,-0.100000)"
fill="#000000" stroke="none">
<path d="M216 2192 c-115 -36 -179 -102 -195 -203 -13 -76 -11 -1225 1 -1286
29 -141 129 -204 328 -207 58 -1 112 1 120 5 14 6 18 104 11 276 -1 20 -5 23
-39 19 -55 -5 -100 17 -116 56 -11 26 -14 125 -13 493 0 253 4 475 9 492 11
44 48 66 110 67 l52 2 -1 142 c0 79 -3 145 -6 149 -12 12 -221 8 -261 -5z"/>
<path d="M2407 2202 c-9 -2 -17 -7 -18 -10 0 -4 0 -297 -1 -652 -1 -355 -5
-660 -10 -677 -12 -44 -48 -66 -109 -67 -27 0 -49 -4 -50 -10 -4 -62 -2 -270
3 -278 7 -13 208 -15 253 -4 89 22 158 77 191 151 17 37 18 93 20 793 2 699 1
752 -14 753 -81 3 -252 3 -265 1z"/>
<path d="M2008 2145 c-2 -2 -37 -6 -78 -10 -41 -3 -82 -8 -90 -10 -8 -2 -44
-7 -80 -10 -96 -9 -228 -24 -260 -30 -8 -2 -44 -6 -80 -10 -36 -4 -72 -8 -80
-10 -8 -2 -44 -6 -79 -10 -115 -12 -178 -74 -168 -162 2 -24 13 -53 22 -63 21
-24 85 -43 117 -36 13 3 54 8 91 11 37 4 76 8 85 10 9 1 47 6 84 9 37 4 77 9
90 11 13 2 50 6 83 10 66 7 102 12 157 19 27 4 36 2 33 -7 -2 -6 -6 -32 -9
-57 -3 -25 -14 -108 -25 -185 -11 -77 -23 -162 -27 -190 -3 -27 -12 -82 -18
-121 -19 -107 -6 -158 45 -188 61 -36 150 0 183 74 14 34 30 117 41 216 3 27
8 56 10 64 2 8 7 38 11 65 3 28 8 59 10 70 3 11 7 40 10 65 3 25 7 52 9 60 2
8 7 39 10 69 4 30 9 63 11 75 2 12 7 44 10 71 3 28 7 61 9 75 4 35 -19 86 -46
100 -25 14 -76 30 -81 25z"/>
<path d="M1185 1667 c-44 -15 -85 -44 -173 -127 -43 -41 -139 -131 -213 -200
-206 -193 -219 -209 -219 -275 0 -47 19 -79 61 -101 55 -28 123 -3 209 78 30
28 109 101 174 162 248 231 279 262 297 298 56 109 -22 203 -136 165z"/>
<path d="M1500 1358 c-26 -7 -99 -74 -284 -256 -137 -136 -261 -266 -276 -290
-76 -117 22 -235 145 -176 40 19 530 505 552 547 29 56 21 127 -17 162 -23 21
-74 27 -120 13z"/>
</g>
</svg>
